<?xml version="1.0" encoding="utf-8"?>
<!-- Generator: Adobe Illustrator 27.0.0, SVG Export Plug-In . SVG Version: 6.00 Build 0)  -->
<svg version="1.1" id="Layer_1" xmlns="http://www.w3.org/2000/svg" xmlns:xlink="http://www.w3.org/1999/xlink" x="0px" y="0px"
	 viewBox="0 0 2000 2000" style="enable-background:new 0 0 2000 2000;" xml:space="preserve">
<style type="text/css">
	.st0{fill-rule:evenodd;clip-rule:evenodd;}
</style>
<g>
	<path class="st0" d="M999.7,1010.5l65.4,21.9c0.7,0.3,1.3,1,1.3,1.7l-4.4,63.8c0,0.7,0,1,0.7,1.3l19.6,19.6c0.7,0.7,0.7,1.7,0,2.4
		l-26,31.4c-0.3,0.7-1.3,0.7-2,0.7l-15.5-6.4c-1-0.3-2,0-2.4,1l0,0l-7.1,23.9c-0.3,0.7-0.7,1-1,1.3l-27.7,8.4c-0.3,0-0.7,0-1,0
		l-27.7-8.4c-0.7-0.3-1-0.7-1-1.3l-7.1-23.9c-0.3-1-1.3-1.3-2.4-1.3l0,0l-15.5,6.4c-0.7,0.3-1.7,0-2-0.7l-26-31.4
		c-0.7-0.7-0.7-1.7,0-2.4l19.6-19.6c0.3-0.3,0.7-1,0.7-1.3l-4.4-63.8c0-0.7,0.3-1.7,1.3-1.7L999.7,1010.5z M963.6,1092.8
		c-9.4,0-17.2,7.8-17.2,17.2c0,9.4,7.8,17.2,17.2,17.2c9.4,0,17.2-7.8,17.2-17.2C980.8,1100.6,973,1092.8,963.6,1092.8
		 M1036.1,1092.8c-9.4,0-17.2,7.8-17.2,17.2c0,9.4,7.8,17.2,17.2,17.2s17.2-7.8,17.2-17.2
		C1053.3,1100.6,1045.5,1092.8,1036.1,1092.8 M999,1128.6l-9.8,14.2c-0.3,0.7-0.3,1.3,0.3,1.7l3.7,2.7c0.7,0.3,1.3,0.3,1.7,0
		l4.4-4.7c0.3-0.3,0.7-0.3,1,0l0,0l4.4,4.7c0.3,0.7,1.3,0.7,1.7,0l3.7-2.7c0.7-0.3,0.7-1.3,0.3-1.7l-9.8-14.2
		C1000.3,1128.2,999.7,1128.2,999,1128.6C999.3,1128.6,999,1128.6,999,1128.6 M921.4,1082.7c0,1.3-1,2.4-2.4,2.4l0,0H258.6
		c-0.7,0-1.3-0.3-1.7-1l-40.5-47.6c-0.7-1-0.7-2.4,0.3-3.4c0.3-0.3,1-0.7,1.7-0.7h697.9c1.3,0,2.4,1,2.4,2.4l0,0L921.4,1082.7z
		 M921.7,1149.5c0.7,1,0.7,2.4-0.3,3.4c-0.3,0.3-1,0.7-1.3,0.7H737.6c-0.7,0-1.3-0.3-1.7-1l-15.2-17.9c-0.7-1-0.7-2.4,0.3-3.4
		c0.3-0.3,1-0.7,1.7-0.7h183.5h0.3L921.7,1149.5z M896.4,1119.1c-0.3,0.3-1,0.7-1.7,0.7H287.6c-0.7,0-1.3-0.3-1.7-1l-15.2-17.9
		c-1-1-0.7-2.4,0.3-3.4c0.3-0.3,1-0.7,1.7-0.7h639.9c1.3,0,2.4,1,2.4,2.4c0,0.7-0.3,1.3-0.7,1.7L896.4,1119.1z M510.5,1134.6
		c-1-1-0.7-2.4,0.3-3.4c0.3-0.3,1-0.7,1.7-0.7h182.8c0.7,0,1.3,0.3,1.7,1l15.2,17.9c0.7,1,0.7,2.4-0.3,3.4c-0.3,0.3-1,0.7-1.7,0.7
		H527.4c-0.7,0-1.3-0.3-1.7-1L510.5,1134.6z M1077.9,1082.7l3.4-47.9l0,0c0-1.3,1-2.4,2.4-2.4h697.9c1.3,0,2.4,1,2.4,2.4
		c0,0.7-0.3,1-0.7,1.7l-40.1,47.9c-0.3,0.7-1,1-1.7,1h-661.2C1078.9,1085.4,1077.9,1084.4,1077.9,1082.7
		C1077.9,1083,1077.9,1082.7,1077.9,1082.7L1077.9,1082.7z M1077.9,1149.5l15.5-18.6c0,0,0,0,0.3,0h183.5c1.3,0,2.4,1,2.4,2.4
		c0,0.7-0.3,1-0.7,1.7l-15.2,17.9c-0.3,0.7-1,1-1.7,1h-182.5c-1.3,0-2.4-1-2.4-2.4C1077.2,1150.5,1077.6,1149.8,1077.9,1149.5
		 M1103.2,1119.1l-17.5-17.9c-1-1-1-2.4,0-3.4c0.3-0.3,1-0.7,1.7-0.7h639.9c1.3,0,2.4,1,2.4,2.4c0,0.7-0.3,1-0.7,1.7l-15.2,17.9
		c-0.3,0.7-1,1-1.7,1h-607.2C1104.2,1119.8,1103.6,1119.5,1103.2,1119.1 M1489.1,1134.6l-15.2,17.9c-0.3,0.7-1,1-1.7,1h-182.8
		c-1.3,0-2.4-1-2.4-2.4c0-0.7,0.3-1,0.7-1.7l15.2-17.9c0.3-0.7,1-1,1.7-1h182.8c1.3,0,2.4,1,2.4,2.4
		C1489.5,1133.6,1489.5,1134.3,1489.1,1134.6"/>
	<path class="st0" d="M779.4,824v-64.1H673.5c-2.4,0-4-2-4.4-4l0,0v-57c0-2.4,2-4.4,4.4-4.4h652.4c2.4,0,4.4,2,4.4,4.4v57
		c0,2.4-2,4.4-4.4,4.4h-105.9v64.1h-177.8v-64.1h-85.3v64.1L779.4,824z M1219.9,1175.5v64.4h105.9l3,1.3l1.3,3v57l-1.3,3l-3,1.3
		H673.5l-3-1.3l-1.3-3v-57l1.3-3l3-1.3h105.9v-64.4H944l12.8,16.5v47.9h85.3V1192l12.8-16.5H1219.9z M268.3,939.7v43.9
		c0,2.7-2.4,5.1-5.1,5.1h-42.5c-2.7,0-5.1-2.4-5.1-5.1l0,0V852.3c0-2.7,2.4-5.1,5.1-5.1h42.5c2.7,0,5.1,2.4,5.1,5.1v39.8h58v-39.8
		c0-2.7,2.4-5.1,5.1-5.1h42.8c2.7,0,5.1,2.4,5.1,5.1l0,0v131.2c0,2.7-2.4,5.1-5.1,5.1l0,0h-42.8c-2.7,0-5.1-2.4-5.1-5.1v-43.9H268.3
		z M1505.3,947.4v36.1c0,2.7-2.4,5.1-5.1,5.1h-42.5c-2.7,0-5.1-2.4-5.1-5.1l0,0V852.3c0-2.7,2.4-5.1,5.1-5.1l0,0h124.5
		c1.7,0,3,0.7,4,2l21.9,26.6c0.7,1,1,2,1,3v30c0,1.3-0.3,2.4-1.3,3.4l-15.2,16.5l15.2,17.9c0.7,1,1.3,2,1.3,3.4v33.4
		c0,1.3-0.7,2.7-1.3,3.7c-1,1-2.4,1.3-3.7,1.3h-42.5c-2.7,0-5.1-2.4-5.1-5.1v-36.1H1505.3z M1505.3,884.7v25h50.9v-25H1505.3z
		 M1733,933.3h-80.3c-1.3,0-2.7-0.7-3.7-1.7l-22.6-25c-1-1-1.3-2-1.3-3.4v-23.9c0-1.3,0.3-2.4,1.3-3.4l22.9-27c1-1,2.4-1.7,3.7-1.7
		h90.7c1.3,0,3,0.7,3.7,1.7l23.3,26.6c0.7,1,1.3,2,1.3,3.4v0.7c0,2.7-2.4,5.1-5.1,5.1h-90.7v10.8h79.3c1.3,0,3,0.7,3.7,1.7
		l23.6,27.7c0.7,1,1.3,2,1.3,3.4v26.6c0,1.3-0.3,2.4-1,3.4l-23.9,28.7c-1,1-2.4,1.7-4,1.7h-101.9c-1.3,0-2.7-0.7-3.7-1.7l-23.6-26.6
		c-0.7-1-1.3-2-1.3-3.4v-4c0-2.7,2.4-5.1,5.1-5.1h102.9L1733,933.3z M542.3,983.5c0,2.7-2.4,5.1-5.1,5.1l0,0H406
		c-2.7,0-5.1-2.4-5.1-5.1l0,0V852.3c0-2.7,2.4-5.1,5.1-5.1l0,0h131.2c2.7,0,5.1,2.4,5.1,5.1l0,0v28.3c0,2.7-2.4,5.1-5.1,5.1l0,0
		h-83.7v10.1h76.9c2.7,0,5.1,2.4,5.1,5.1l0,0v28.3c0,2.7-2.4,5.1-5.1,5.1h-76.9v13.2h83.7c2.7,0,5.1,2.4,5.1,5.1V983.5z
		 M1434.5,983.5c0,2.7-2.4,5.1-5.1,5.1h-131.2c-2.7,0-5.1-2.4-5.1-5.1V852.3c0-2.7,2.4-5.1,5.1-5.1h131.2c2.7,0,5.1,2.4,5.1,5.1
		v28.3c0,2.7-2.4,5.1-5.1,5.1h-83.7v10.1h76.9c2.7,0,5.1,2.4,5.1,5.1l0,0v28.3c0,2.7-2.4,5.1-5.1,5.1h-76.9v13.2h83.7
		c2.7,0,5.1,2.4,5.1,5.1V983.5z M692,983.5c0,1.3-0.7,2.7-1.3,3.7c-1,1-2.4,1.3-3.7,1.3H568.9c-2.7,0-5.1-2.4-5.1-5.1l0,0V852.3
		c0-2.7,2.4-5.1,5.1-5.1l0,0h42.5c2.7,0,5.1,2.4,5.1,5.1v95.1H687c2.7,0,5.1,2.4,5.1,5.1V983.5z M836.4,983.5c0,2.7-2.4,5.1-5.1,5.1
		H713.3c-2.7,0-5.1-2.4-5.1-5.1l0,0V852.3c0-2.7,2.4-5.1,5.1-5.1l0,0h42.5c1.3,0,2.7,0.7,3.7,1.3c1,1,1.3,2.4,1.3,3.7v95.1h70.5
		c2.7,0,5.1,2.4,5.1,5.1l0,0V983.5z M1023.6,956.2c0,1-0.3,2.4-1,3l-21.6,27c-1,1.3-2.4,2-4,2H857.6c-2.7,0-5.1-2.4-5.1-5.1V852.3
		c0-2.7,2.4-5.1,5.1-5.1H997c1.3,0,3,0.7,4,1.7l21.6,26c0.7,1,1,2,1,3.4V956.2z M905.2,888.4v59H971v-59H905.2z M1090.4,847.2
		c2.7,0,5.1,2.4,5.1,5.1v131.2c0,2.7-2.4,5.1-5.1,5.1h-42.5c-2.7,0-5.1-2.4-5.1-5.1V852.3c0-2.7,2.4-5.1,5.1-5.1H1090.4z
		 M1222.3,985.5c-0.7,1.7-2.7,3-4.7,3h-48.2c-2,0-3.7-1-4.7-3l-59.7-131.2c-1-2.7,0-5.4,2.4-6.7c0.7-0.3,1.3-0.3,2-0.3h44.5
		c2,0,4,1.3,4.7,3l34.7,85.7l34.7-85.7c0.7-2,2.7-3,4.7-3h44.5c2.7,0,5.1,2.4,5.1,5.1c0,0.7,0,1.3-0.3,2L1222.3,985.5z"/>
</g>
</svg>
